<?xml version="1.0" standalone="no"?><svg xmlns="http://www.w3.org/2000/svg" viewBox="0 0 1440 320"><path fill="#0099ff" fill-opacity="1" d="M0,128L30,117.3C60,107,120,85,180,90.7C240,96,300,128,360,170.7C420,213,480,267,540,261.3C600,256,660,192,720,149.3C780,107,840,85,900,69.3C960,53,1020,43,1080,80C1140,117,1200,203,1260,213.3C1320,224,1380,160,1410,128L1440,96L1440,0L1410,0C1380,0,1320,0,1260,0C1200,0,1140,0,1080,0C1020,0,960,0,900,0C840,0,780,0,720,0C660,0,600,0,540,0C480,0,420,0,360,0C300,0,240,0,180,0C120,0,60,0,30,0L0,0Z"></path></svg>